<?xml version="1.0" encoding="utf-8"?>
<!-- Generator: Adobe Illustrator 17.1.0, SVG Export Plug-In . SVG Version: 6.00 Build 0)  -->
<!DOCTYPE svg PUBLIC "-//W3C//DTD SVG 1.1//EN" "http://www.w3.org/Graphics/SVG/1.1/DTD/svg11.dtd">
<svg version="1.1" id="Layer_1" xmlns="http://www.w3.org/2000/svg" xmlns:xlink="http://www.w3.org/1999/xlink" x="0px" y="0px"
	 viewBox="0 0 800 600" style="enable-background:new 0 0 800 600;" xml:space="preserve">
<rect style="fill:#73CCD4;" width="800" height="600"/>
<g>
	<polygon style="fill:#F37E8E;" points="156.7,296.9 128.4,181.4 86.3,316.7 	"/>
	<polygon style="fill:#B72128;" points="144.5,247.2 176.8,327.6 86.3,317 112,287.1 	"/>
	<polygon style="fill:#F8A597;" points="43,391.1 -37.8,260.3 102.7,193.9 91.5,324.2 	"/>
	<polygon style="fill:#CC6F60;" points="297.4,137.3 287.8,78.1 257.3,153.5 	"/>
	<polygon style="fill:#DD8E7C;" points="225.1,195.3 128.4,181.4 145.5,265.9 	"/>
	<polygon style="fill:#7F9ACF;" points="35,416.4 58.6,485.3 26.1,537.7 	"/>
	<polygon style="fill:#D75F85;" points="452.6,46 519,112.6 457,116.8 	"/>
	<polygon style="fill:#D75F85;" points="464,104.4 501.2,302.1 510.2,201.6 	"/>
	<polygon style="fill:#BA3E6E;" points="462.1,125.2 464,104.4 502.6,278 469.8,214.2 	"/>
	<g>
		<polygon style="fill:#BA1E57;" points="161.8,265.9 133.4,340.9 161.8,351.5 193.8,308.7 		"/>
	</g>
	<g>
		<polygon style="fill:#E16684;" points="257.3,246.6 257.3,327.6 361.8,371.7 502.6,278 450,121.1 396.5,56.7 337.4,137.3 		"/>
	</g>
	<g>
		<polygon style="fill:#E37792;" points="257.3,327.6 315.6,265.9 257.3,246.6 		"/>
	</g>
	<g>
		<polygon style="fill:#D75F85;" points="315.6,265.9 361.8,371.7 257.3,327.6 		"/>
	</g>
	<g>
		<polygon style="fill:#D75F85;" points="257.3,327.6 153.9,302.1 145.5,265.9 257.3,246.6 		"/>
	</g>
	<g>
		<polygon style="fill:#DE7A98;" points="145.5,265.9 225.1,195.3 242,208.8 		"/>
	</g>
	<g>
		<polygon style="fill:#CD4977;" points="257.3,246.6 242,208.8 145.5,265.9 		"/>
	</g>
	<g>
		<polygon style="fill:#D75F85;" points="242,208.8 337.4,137.3 257.3,246.6 		"/>
	</g>
	<g>
		<polygon style="fill:#E496B1;" points="225.1,195.3 242,208.8 337.4,137.3 337.4,98.2 257.3,153.5 		"/>
	</g>
	<g>
		<polygon style="fill:#CD4977;" points="337.4,96.4 361.8,104 337.4,137.3 		"/>
	</g>
	<g>
		<polygon style="fill:#CD4977;" points="153.9,302.1 211.9,391 257.3,327.6 		"/>
	</g>
	<g>
		<polygon style="fill:#CD4977;" points="450,121.1 464,104.4 481.2,214.2 		"/>
	</g>
	<g>
		<polygon style="fill:#BA1E57;" points="257.3,327.6 262.5,371.7 211.9,391 		"/>
	</g>
	<g>
		<polygon style="fill:#E496B1;" points="337.4,137.3 315.6,265.9 257.3,246.6 		"/>
	</g>
	<g>
		<polygon style="fill:#D75F85;" points="450,121.1 361.8,371.7 502.6,278 		"/>
	</g>
	<g style="opacity:0.3;">
		<polygon style="fill:#E496B1;" points="337.4,137.3 450,121.1 396.5,56.7 		"/>
	</g>
	<polygon style="fill:#CD5A84;" points="501.2,279.4 519,112.6 651.7,253.8 	"/>
	<polygon style="fill:#BA3E6E;" points="464,104.4 519,112.6 510.2,201.6 	"/>
	<polygon style="fill:#BA3E6E;" points="450,121.1 452.6,46 464,104.4 	"/>
	<polygon style="fill:#E496B1;" points="502.6,278 502.6,341 476.1,295.6 	"/>
	<polygon style="fill:#D75F85;" points="502.6,276.5 502.6,341 651.7,252.7 	"/>
	<polygon style="fill:#BA1E57;" points="650.6,252.7 675.2,297.4 570.3,336.5 570.3,300.3 	"/>
	<polygon style="fill:#E16684;" points="650.6,252.7 686.1,201.6 751.2,230.6 744.9,294.6 675.2,297.4 	"/>
	<polygon style="fill:#A4ABCE;" points="26.9,591.1 -73.5,517.8 35,416.4 	"/>
	<polygon style="fill:#E16684;" points="822.3,408.4 782.3,362.6 840.6,327.6 874.6,357.7 869,416.9 	"/>
	<polygon style="fill:#E16684;" points="336,98.2 369.5,9.4 361.8,104 	"/>
	<polygon style="fill:#DE7A98;" points="369.5,9.4 337.4,98.2 289.7,131.1 286.5,41.9 	"/>
	<polygon style="fill:#E496B1;" points="811.4,472.8 789.5,447 822.3,408.4 869,416.9 	"/>
	<polygon style="fill:#E16684;" points="396.5,56.7 452.6,46 450,121.1 	"/>
	<g>
		<polygon style="fill:#AEDAD4;" points="34.5,417.9 50.9,270.6 91.5,313.1 		"/>
	</g>
	<g>
		<polygon style="fill:#C5E4DC;" points="14,436.1 35,416.4 50.9,270.6 		"/>
	</g>
	<g>
		<polygon style="fill:#95CFC6;" points="679.7,298.6 751.5,262 728.8,187.2 		"/>
	</g>
	<g>
		<polygon style="fill:#C5E4DC;" points="728.8,187.2 751.3,204.3 751.5,262 		"/>
	</g>
	<g style="opacity:0.5;">
		<polygon style="fill:#C5E4DC;" points="654.7,379.1 537.6,438.9 679.7,298.6 		"/>
	</g>
	<polygon style="fill:#A3BED1;" points="-44.8,430.3 -32.2,479.2 14,436.1 -32.2,384.4 	"/>
	<polygon style="fill:#BAD3E2;" points="-44.8,430.3 -73.5,384.4 -32.2,384.4 	"/>
	<polygon style="fill:#DAEAE9;" points="765.1,541.7 765.1,438.9 790.4,449.5 790.4,503.4 	"/>
	<polygon style="fill:#C171AE;" points="744.9,294.6 782.3,362.6 747.8,265.9 	"/>
	<polygon style="fill:#D8A0C8;" points="679.7,297.2 700.9,416.9 773.1,421.5 782.3,362.6 744.9,294.6 	"/>
	<polygon style="fill:#C171AE;" points="822.3,408.4 773.1,421.5 782.3,362.6 	"/>
	<polygon style="fill:#AE72B0;" points="773.1,421.5 790.4,449.5 822.3,408.4 	"/>
	<polygon style="fill:#9F71B1;" points="790.4,449.5 765.1,438.9 773.1,421.5 	"/>
	<polygon style="fill:#9F71B1;" points="715.6,417.8 728.8,452.6 773.1,421.5 	"/>
	<polygon style="fill:#814FA0;" points="728.8,452.6 738.5,468.7 773.1,421.5 	"/>
	<polygon style="fill:#814FA0;" points="680.1,298 654.7,379.1 670.6,397.3 696.7,392 	"/>
	<polygon style="fill:#6B3393;" points="670.6,397.3 680.1,298 696.7,392 	"/>
	<polygon style="fill:#A37BB7;" points="654.7,379.1 667.8,431.8 670.6,397.3 	"/>
	<polygon style="fill:#542C7C;" points="696.7,392 667.8,431.8 670.6,397.3 	"/>
	<polygon style="fill:#542C7C;" points="174.8,334.1 190.4,358 161.8,379.1 161.8,351.5 	"/>
	<polygon style="fill:#8B65AB;" points="133.4,340.9 91.5,313.1 95,372.2 	"/>
	<polygon style="fill:#DB3B7D;" points="161.8,379.1 95,372.2 133.4,340.9 161.8,351.5 	"/>
	<polygon style="fill:#BA1E57;" points="104.7,417.8 161.8,379.1 95,372.2 	"/>
	<polygon style="fill:#D75F85;" points="133.4,340.9 91.5,313.1 151.7,292.5 	"/>
	<polygon style="fill:#C3C9DF;" points="91.5,313.1 35,416.4 95,372.2 	"/>
	<polygon style="fill:#73CCD4;" points="35,416.4 50.9,461.7 104.7,417.8 	"/>
	<polygon style="fill:#9FABCC;" points="95,372.2 104.7,417.8 35,416.4 	"/>
	<polygon style="fill:#CC6F60;" points="257.3,153.5 225.1,195.3 128.4,181.4 	"/>
	<polygon style="fill:#F8A597;" points="128.4,181.4 133.4,78.1 153.9,92.9 185,169.1 	"/>
	<polygon style="fill:#F8A597;" points="247.9,55.2 286.5,42.4 287.8,78.1 	"/>
	<polygon style="fill:#FAC4BD;" points="257.3,153.5 247.9,55.2 287.8,78.1 	"/>
	<polygon style="fill:#F58B7E;" points="257.3,153.5 185,169.1 173.6,141.1 	"/>
	<polygon style="fill:#F58B7E;" points="396.5,56.7 369.5,9.6 410.8,26.9 452.6,46 	"/>
	<polygon style="fill:#F7A49F;" points="369.5,9.6 361.8,104 396.5,56.7 	"/>
	<polygon style="fill:#F58B7E;" points="128.4,181.4 102.7,193.9 75.1,246.4 91.5,313.1 	"/>
	<polygon style="fill:#BA1E57;" points="519,112.6 589.4,126.4 629.9,230.6 	"/>
	<polygon style="fill:#BA1E57;" points="650.6,252.7 629.9,230.6 645.3,214.2 667.8,228 	"/>
	<polygon style="fill:#DD6294;" points="589.4,126.4 645.3,214.2 629.9,230.6 	"/>
</g>
<rect x="-9" y="43" style="fill:none;" width="453.5" height="453.5"/>
</svg>
