<?xml version="1.0" standalone="no"?>
<!DOCTYPE svg PUBLIC "-//W3C//DTD SVG 1.1//EN" "http://www.w3.org/Graphics/SVG/1.1/DTD/svg11.dtd">
<svg width="640px" height="640px" version="1.1" xmlns="http://www.w3.org/2000/svg" xmlns:xlink="http://www.w3.org/1999/xlink" xml:space="preserve" style="fill-rule:evenodd;clip-rule:evenodd;stroke-linejoin:round;stroke-miterlimit:1.41421;">
    <g>
        <g id="key">
            <path d="M16,102C12.686,102 10,99.314 10,96C10,92.686 12.686,90 16,90C19.314,90 22,92.686 22,96C22,99.314 19.314,102 16,102M59.707,130.293L38.029,108.615C39.279,106.003 40,103.089 40,100C40,88.954 31.046,80 20,80C8.954,80 0,88.954 0,100C0,111.046 8.954,120 20,120C23.62,120 27.01,119.034 29.935,117.349L42.293,129.707C42.474,129.888 42.724,130 43,130L46,130L46,133C46,133.552 46.448,134 47,134L50,134L50,139C50,139.552 50.448,140 51,140L59,140C59.552,140 60,139.552 60,139L60,131C60,130.724 59.888,130.474 59.707,130.293" style="fill:rgb(241,208,77);"/>
            <g opacity="0.101959">
                <path d="M26.4993,118.913C26.7543,118.826 26.9973,118.713 27.2483,118.614C26.9963,118.713 26.7453,118.814 26.4883,118.903L26.4993,118.913ZM34.8153,113.401C33.2673,115.112 31.4253,116.543 29.3743,117.636C29.5593,117.537 29.7533,117.454 29.9343,117.349L42.2933,129.708C42.4743,129.887 42.7243,130 43.0003,130L46.0003,130L46.0003,133C46.0003,133.553 46.4473,134 47.0003,134L50.0003,134L50.0003,139C50.0003,139.553 50.4473,140 51.0003,140L59.0003,140C59.5523,140 60.0003,139.553 60.0003,139L60.0003,138.585L34.8153,113.401ZM16.0003,101.999C12.6863,101.999 10.0003,99.3135 10.0003,95.9995C10.0003,92.6865 12.6863,90.0005 16.0003,90.0005C19.3133,90.0005 22.0003,92.6865 22.0003,95.9995C22.0003,99.3135 19.3133,101.999 16.0003,101.999M16.0003,85.9995C10.4773,85.9995 6.0003,90.4775 6.0003,95.9995C6.0003,101.522 10.4773,105.999 16.0003,105.999C21.5233,105.999 26.0003,101.522 26.0003,95.9995C26.0003,90.4775 21.5233,85.9995 16.0003,85.9995" style="fill:rgb(3,5,5);"/>
            </g>
            <path d="M16.4139,93.5854L3.4139,80.5854C3.0519,80.2234 2.5519,80.0004 1.9999,80.0004C0.8959,80.0004 -0.0001,80.8954 -0.0001,81.9994C-0.0001,82.5524 0.2239,83.0524 0.5859,83.4144L13.5859,96.4144C13.9479,96.7764 14.4479,97.0004 14.9999,97.0004C16.1049,97.0004 16.9999,96.1044 16.9999,94.9994C16.9999,94.4474 16.7759,93.9474 16.4139,93.5854" style="fill:rgb(154,154,154);"/>
        </g>
        <g id="globe">
            <path d="M34,162C16.327,162 2,176.327 2,194C2,211.673 16.327,226 34,226C51.673,226 66,211.673 66,194C66,176.327 51.673,162 34,162" style="fill:rgb(101,202,235);"/>
            <path d="M60.5066,208L50.3996,208C51.2856,204.304 51.8356,200.26 51.9666,196L63.9206,196C63.6356,200.316 62.4246,204.374 60.5066,208M43.9826,222.292C46.1066,219.613 47.9056,216.095 49.2616,212L57.9776,212C54.4606,216.682 49.6116,220.306 43.9826,222.292M35.9996,223.69L35.9996,212L45.1856,212C43.0106,218.197 39.7496,222.541 35.9996,223.69M22.8146,212L31.9996,212L31.9996,223.69C28.2506,222.541 24.9886,218.197 22.8146,212M10.0226,212L18.7386,212C20.0946,216.095 21.8936,219.613 24.0176,222.292C18.3886,220.306 13.5396,216.682 10.0226,212M16.0336,196C16.1646,200.26 16.7146,204.304 17.6006,208L7.4936,208C5.5756,204.374 4.3646,200.316 4.0796,196L16.0336,196ZM6.9996,180.961L6.9996,181L17.3726,181C16.6226,184.422 16.1526,188.121 16.0336,192L4.0796,192C4.3396,188.062 5.3676,184.338 6.9996,180.961M24.0176,165.708C21.7216,168.604 19.7996,172.473 18.4126,177L9.3096,177C12.8706,171.835 17.9956,167.833 24.0176,165.708M31.9996,164.31L31.9996,177L22.4786,177C24.6446,170.271 28.0526,165.52 31.9996,164.31M20.0346,192C20.1546,188.075 20.6386,184.369 21.3966,181L31.9996,181L31.9996,192L20.0346,192ZM20.0346,196L31.9996,196L31.9996,208L21.6256,208C20.7306,204.375 20.1666,200.315 20.0346,196M47.9656,196C47.8326,200.315 47.2696,204.375 46.3746,208L35.9996,208L35.9996,196L47.9656,196ZM35.9996,181L46.6036,181C47.3616,184.369 47.8446,188.075 47.9656,192L35.9996,192L35.9996,181ZM35.9996,164.31C39.9476,165.52 43.3556,170.271 45.5216,177L35.9996,177L35.9996,164.31ZM58.6896,177L49.5876,177C48.2006,172.473 46.2786,168.604 43.9826,165.708C50.0046,167.833 55.1296,171.835 58.6896,177M60.9996,180.961C62.6326,184.338 63.6606,188.062 63.9206,192L51.9666,192C51.8466,188.121 51.3776,184.422 50.6266,181L60.9996,181L60.9996,180.961ZM33.9996,160C15.2226,160 -0.0004,175.222 -0.0004,194C-0.0004,212.778 15.2226,228 33.9996,228C52.7776,228 67.9996,212.778 67.9996,194C67.9996,175.222 52.7776,160 33.9996,160" style="fill:white;"/>
            <path d="M12.8264,169.11C11.8924,169.11 11.1344,168.352 11.1344,167.418C11.1344,166.484 11.8924,165.726 12.8264,165.726C13.7604,165.726 14.5184,166.484 14.5184,167.418C14.5184,168.352 13.7604,169.11 12.8264,169.11M12.8264,162.342C10.0234,162.342 7.7504,164.615 7.7504,167.418C7.7504,170.59 11.9804,175.032 12.8264,175.032C13.6724,175.032 17.9024,170.59 17.9024,167.418C17.9024,164.615 15.6294,162.342 12.8264,162.342" style="fill:rgb(206,53,104);"/>
            <path d="M49.4822,204.742C48.1332,204.742 47.0392,203.648 47.0392,202.299C47.0392,200.949 48.1332,199.855 49.4822,199.855C50.8312,199.855 51.9252,200.949 51.9252,202.299C51.9252,203.648 50.8312,204.742 49.4822,204.742M49.4822,194.969C45.4342,194.969 42.1522,198.251 42.1522,202.299C42.1522,206.88 48.2602,213.294 49.4822,213.294C50.7042,213.294 56.8122,206.88 56.8122,202.299C56.8122,198.251 53.5302,194.969 49.4822,194.969" style="fill:rgb(206,53,104);"/>
            <path d="M46.9859,192.248L46.9851,192.065L46.9828,191.891L46.979,191.718L46.9736,191.545L46.9668,191.372L46.9584,191.2L46.9486,191.029L46.9372,190.857L46.9244,190.686L46.91,190.515L46.8942,190.345L46.8769,190.175L46.8582,190.006L46.838,189.837L46.8163,189.668L46.7932,189.5L46.7686,189.332L46.7426,189.164L46.7152,188.997L46.6863,188.831L46.6561,188.664L46.6243,188.498L46.5912,188.333L46.5567,188.168L46.5208,188.003L46.4835,187.839L46.4447,187.675L46.4046,187.512L46.3632,187.349L46.3203,187.187L46.276,187.025L46.2281,186.855L50.0777,185.768L50.1303,185.955L50.1835,186.15L50.2351,186.345L50.2851,186.542L50.3334,186.738L50.3801,186.936L50.4251,187.134L50.4684,187.332L50.51,187.531L50.55,187.73L50.5882,187.93L50.6247,188.131L50.6595,188.332L50.6926,188.534L50.724,188.736L50.7536,188.938L50.7815,189.141L50.8076,189.345L50.832,189.549L50.8546,189.753L50.8755,189.958L50.8945,190.163L50.9118,190.369L50.9273,190.575L50.941,190.782L50.9529,190.989L50.9629,191.196L50.9712,191.404L50.9776,191.612L50.9822,191.82L50.985,192.029L50.9859,192.23L46.9859,192.248Z" style="fill:rgb(206,53,104);"/>
            <path d="M42.2384,179.378L42.1078,179.221L41.9812,179.072L41.8533,178.924L41.724,178.777L41.5932,178.631L41.461,178.486L41.3274,178.342L41.1925,178.199L41.0561,178.056L40.9184,177.915L40.7793,177.775L40.6389,177.636L40.4972,177.498L40.3541,177.361L40.2096,177.224L40.0638,177.089L39.9168,176.955L39.7684,176.823L39.6187,176.691L39.4677,176.56L39.3155,176.43L39.162,176.302L39.0072,176.174L38.8512,176.048L38.6939,175.923L38.5353,175.799L38.3756,175.676L38.2147,175.554L38.0525,175.433L37.889,175.314L37.7244,175.196L37.5587,175.079L37.3918,174.963L37.2236,174.848L37.0543,174.734L36.8839,174.622L36.7123,174.511L36.5396,174.401L36.3658,174.293L36.1908,174.186L36.0147,174.079L35.8375,173.975L35.6592,173.871L35.4799,173.769L35.2995,173.668L35.118,173.568L34.9355,173.47L34.7519,173.373L34.5672,173.278L34.3816,173.183L34.1949,173.09L34.0071,172.999L33.8184,172.908L33.6288,172.82L33.438,172.732L33.2464,172.646L33.0537,172.561L32.8602,172.478L32.6656,172.396L32.4701,172.315L32.2736,172.236L32.0763,172.159L31.878,172.083L31.6713,172.005L33.0767,168.26L33.298,168.343L33.5258,168.431L33.7526,168.52L33.9784,168.611L34.2031,168.703L34.4269,168.797L34.6496,168.893L34.8713,168.991L35.0919,169.09L35.3115,169.191L35.53,169.293L35.7474,169.397L35.9637,169.503L36.1789,169.61L36.393,169.719L36.606,169.829L36.8178,169.941L37.0286,170.054L37.2381,170.169L37.4465,170.286L37.6537,170.404L37.8597,170.523L38.0646,170.645L38.2683,170.767L38.4707,170.891L38.6719,171.017L38.8719,171.144L39.0707,171.273L39.2682,171.403L39.4644,171.534L39.6593,171.667L39.8531,171.802L40.0455,171.938L40.2366,172.075L40.4264,172.214L40.6148,172.354L40.802,172.496L40.9878,172.639L41.1722,172.783L41.3553,172.929L41.5371,173.076L41.7174,173.224L41.8964,173.374L42.0739,173.526L42.2501,173.678L42.4248,173.832L42.5981,173.987L42.77,174.144L42.9404,174.302L43.1093,174.461L43.2767,174.621L43.4427,174.783L43.6072,174.946L43.7702,175.11L43.9317,175.276L44.0917,175.443L44.2501,175.611L44.4069,175.78L44.5623,175.951L44.716,176.123L44.8682,176.296L45.0188,176.47L45.1678,176.645L45.3096,176.815L42.2384,179.378Z" style="fill:rgb(206,53,104);"/>
            <path d="M27.4829,170.824L27.3088,170.79L27.1403,170.758L26.9713,170.727L26.8018,170.697L26.632,170.669L26.4618,170.641L26.2911,170.614L26.1201,170.588L25.9486,170.563L25.7767,170.539L25.6045,170.516L25.4319,170.495L25.2587,170.474L25.0853,170.454L24.9115,170.435L24.7373,170.418L24.5627,170.401L24.3878,170.386L24.2124,170.371L24.0367,170.357L23.8607,170.345L23.6843,170.334L23.5076,170.323L23.3305,170.314L23.1529,170.306L22.9751,170.299L22.7971,170.293L22.6186,170.288L22.4397,170.284L22.2606,170.281L22.0812,170.28L21.8952,170.279L21.9076,166.279L22.1057,166.28L22.3097,166.282L22.5134,166.285L22.7166,166.289L22.9195,166.295L23.1222,166.302L23.3245,166.31L23.5264,166.319L23.728,166.329L23.9292,166.341L24.1301,166.354L24.3306,166.368L24.5307,166.384L24.7304,166.4L24.9298,166.418L25.1288,166.437L25.3273,166.457L25.5256,166.478L25.7234,166.501L25.9207,166.525L26.1176,166.549L26.3142,166.576L26.5103,166.603L26.7061,166.631L26.9013,166.661L27.0962,166.691L27.2907,166.723L27.4846,166.756L27.6781,166.79L27.8711,166.826L28.0637,166.862L28.2499,166.898L27.4829,170.824Z" style="fill:rgb(206,53,104);"/>
        </g>
        <g id="dashboard">
            <path d="M64,240L4,240C1.791,240 0,241.791 0,244L0,296C0,298.209 1.791,300 4,300L64,300C66.209,300 68,298.209 68,296L68,244C68,241.791 66.209,240 64,240" style="fill:white;"/>
            <path d="M7,245C5.895,245 5,245.895 5,247C5,248.105 5.895,249 7,249C8.105,249 9,248.105 9,247C9,245.895 8.105,245 7,245" style="fill:rgb(240,90,47);"/>
            <path d="M13,245C11.895,245 11,245.895 11,247C11,248.105 11.895,249 13,249C14.105,249 15,248.105 15,247C15,245.895 14.105,245 13,245" style="fill:rgb(241,208,77);"/>
            <path d="M19.0001,245C17.8951,245 17.0001,245.895 17.0001,247C17.0001,248.105 17.8951,249 19.0001,249C20.1051,249 21.0001,248.105 21.0001,247C21.0001,245.895 20.1051,245 19.0001,245" style="fill:rgb(128,196,94);"/>
            <g opacity="0.101959">
                <path d="M4,300L64,300C66.209,300 68,296 68,296L0,296C0,298.209 1.791,300 4,300M64,240L4,240C1.791,240 0,241.791 0,244L0,254L68,254L68,244C68,241.791 66.209,240 64,240" style="fill:rgb(3,5,5);"/>
            </g>
            <g opacity="0.199997">
                <path d="M4,288L16,288L16,286L4,286L4,288ZM4,282L16,282L16,280L4,280L4,282ZM4,276L16,276L16,274L4,274L4,276ZM4,270L16,270L16,268L4,268L4,270ZM12,262L4,262L4,264L12,264L12,262Z" style="fill:rgb(3,5,5);"/>
            </g>
            <path d="M62,282L23,282C22.448,282 22,282.448 22,283L22,287C22,287.552 22.448,288 23,288L62,288C62.552,288 63,287.552 63,287L63,283C63,282.448 62.552,282 62,282M62,272L23,272C22.448,272 22,272.448 22,273L22,277C22,277.552 22.448,278 23,278L62,278C62.552,278 63,277.552 63,277L63,273C63,272.448 62.552,272 62,272M62,262L23,262C22.448,262 22,262.448 22,263L22,267C22,267.552 22.448,268 23,268L62,268C62.552,268 63,267.552 63,267L63,263C63,262.448 62.552,262 62,262" style="fill:rgb(101,202,235);"/>
        </g>
        <g id="mailchimp">
            <path d="M191.06,138.913L191.042,138.879L191.005,138.761L191.022,138.726C192.166,136.32 193.477,134.941 194.618,134.941L194.629,134.941C195.917,134.951 196.808,136.134 196.796,137.817C196.787,138.94 196.302,139.587 195.897,139.931C195.435,140.325 194.819,140.55 194.207,140.55C192.7,140.538 191.666,139.654 191.06,138.913M190.748,147.996C190.564,148.246 190.308,148.372 189.987,148.372C189.618,148.37 189.341,148.238 189.153,147.982C188.625,147.261 188.774,145.57 189.635,142.498C189.738,142.132 189.85,141.762 189.967,141.401L190.067,141.095L190.155,141.405C191.159,144.951 191.358,147.168 190.748,147.996M153.87,131.664C153.904,130.899 153.967,130.153 154.056,129.448C154.637,124.906 155.85,121.733 157.007,121.733L157.012,121.733C157.563,121.738 157.839,122.163 157.833,122.998C157.818,125.049 156.545,127.985 154.049,131.726L153.854,132.018L153.87,131.664ZM194.338,142.026L194.378,142.027C196.807,142.027 198.516,140.309 198.534,137.851C198.544,136.634 198.199,135.52 197.565,134.715C196.893,133.863 195.954,133.409 194.848,133.4L194.825,133.4C193.332,133.4 191.945,134.557 190.586,136.936L190.478,137.126L190.408,136.918C190.065,135.898 189.759,135.049 189.576,134.541C189.449,134.186 189.392,134.027 189.379,133.975C189.313,133.718 189.098,133.558 188.815,133.558C188.642,133.558 188.457,133.618 188.282,133.732C188.109,133.844 188.012,133.982 187.978,134.165L187.969,134.193C186.608,138.523 185.486,140.627 184.536,140.627C184.398,140.626 184.29,140.579 184.209,140.488C183.96,140.207 184.022,139.539 184.106,138.615C184.168,137.936 184.239,137.166 184.21,136.351C184.153,134.782 183.313,133.84 181.96,133.829C180.243,133.829 179.129,135.696 178.616,136.809L178.463,137.142L178.429,136.776C178.301,135.399 177.848,133.753 176.418,133.742C174.75,133.742 173.479,135.74 172.704,137.417L172.496,137.867L172.517,137.37C172.609,135.134 172.684,133.813 172.741,133.447C172.798,133.08 172.768,132.833 172.65,132.692C172.539,132.559 172.329,132.51 172.02,132.53C171.486,132.565 171.213,132.896 170.802,134.009C170.126,135.835 168.409,140.084 167.037,140.084C166.765,140.083 166.549,139.988 166.391,139.803C165.816,139.13 166.046,137.31 166.365,134.792L166.389,134.602C166.539,133.409 166.282,133.155 165.648,133.036C165.58,133.023 165.515,133.017 165.455,133.017C164.949,133.017 164.712,133.512 164.239,134.888C163.397,137.337 162.314,139.913 161.047,139.913C161.001,139.913 160.955,139.91 160.909,139.902C160.238,139.785 160.252,138.769 160.271,137.482C160.281,136.786 160.292,135.997 160.187,135.284C159.998,134.006 159.26,133.207 158.261,133.199C156.266,133.199 154.922,135.806 154.296,137.36L154.154,137.711L154.107,137.334C154.024,136.66 153.913,135.592 153.865,134.33L153.864,134.292L153.886,134.263C157.618,129.468 159.292,126.008 159.315,123.043C159.329,121.149 158.473,120.012 157.025,120C155.966,120 153.448,120.9 152.574,129.239C152.411,130.786 152.322,132.371 152.309,133.952L152.309,133.983L152.291,134.008C150.584,136.531 146.94,140.869 143.373,140.869C140.149,140.869 137.578,138.208 137.578,133.509C137.578,127.21 141.946,123.343 145.233,123.343L145.26,123.343C145.974,123.349 146.587,123.552 147.031,123.932C147.493,124.326 147.734,124.879 147.729,125.53C147.723,126.4 147.446,126.847 147.177,127.278C147.108,127.39 147.04,127.5 146.977,127.617C146.913,127.735 146.855,127.907 146.94,128.053C147.026,128.204 147.247,128.298 147.516,128.3C148.298,128.3 149.482,127.144 149.495,125.402C149.508,123.579 148.004,121.701 145.319,121.701C141.257,121.701 135.786,126.256 135.786,133.638C135.786,138.86 138.994,142.47 143.339,142.47C146.423,142.47 149.473,140.216 152.174,136.452L152.34,136.224L152.352,136.508C152.409,137.885 152.507,138.971 152.579,139.764C152.625,140.274 152.659,140.642 152.657,140.845C152.653,141.29 152.725,141.599 152.875,141.789C153.025,141.979 153.264,142.068 153.626,142.071C154.233,142.071 154.354,141.649 154.594,140.608L154.663,140.31C154.962,139.048 156.065,134.929 157.723,134.929C157.994,134.931 158.203,135.013 158.352,135.174C158.718,135.57 158.678,136.384 158.631,137.327C158.602,137.915 158.573,138.523 158.63,139.115C158.787,140.712 159.462,141.493 160.697,141.503C161.964,141.503 163.287,140.11 163.984,138.815L164.116,138.571L164.168,138.845C164.296,139.538 164.873,141.812 166.676,141.812C168.311,141.812 169.713,140.055 171.251,136.439L171.452,135.966L171.44,136.481C171.407,137.852 171.334,139.525 171.334,140.819C171.333,141.82 171.432,142.202 171.885,142.202C171.918,142.202 171.952,142.207 171.988,142.207C172.423,142.207 172.718,141.942 172.865,141.418C174.022,137.303 175.022,135.386 176.012,135.386C176.982,135.394 177.073,137.204 177.151,140.402L177.156,140.627C177.18,141.745 177.219,142.241 177.9,142.246C178.417,142.246 178.545,141.832 178.812,140.811C178.863,140.617 178.919,140.404 178.984,140.173C179.918,136.866 180.692,135.516 181.656,135.516C182.481,135.523 182.527,136.391 182.543,136.676C182.574,137.288 182.513,137.927 182.453,138.545C182.398,139.119 182.341,139.713 182.362,140.265C182.413,141.559 183.107,142.277 184.317,142.286C185.887,142.286 187.304,140.412 188.545,136.716L188.631,136.458L188.73,136.712C188.955,137.292 189.248,138.079 189.52,139.017L189.53,139.052L189.515,139.086C188.313,141.81 187.466,144.845 187.454,146.466C187.437,148.601 188.384,149.988 189.865,150L189.89,150C190.696,150 192.574,149.67 192.61,146.615C192.625,145.362 192.335,143.592 191.749,141.351L191.682,141.094L191.899,141.242C192.646,141.748 193.49,142.019 194.338,142.026" style="fill:rgb(102,103,103);fill-rule:nonzero;"/>
            <path d="M115.261,135.755C114.732,137.926 113.719,140.546 111.892,140.696C111.841,140.699 111.791,140.702 111.743,140.702C110.985,140.702 110.56,140.195 110.48,139.196C110.379,137.946 110.908,136.482 111.825,135.465C112.409,134.818 113.068,134.461 113.68,134.461L113.693,134.461C114.465,134.467 115.007,135.101 115.256,135.691L115.269,135.722L115.261,135.755ZM132.017,123.616L132.043,123.615C132.215,123.615 132.366,123.704 132.492,123.878C133.092,124.706 133.101,127.726 132.07,131.162C131.48,133.126 130.688,134.981 129.778,136.527L129.633,136.773L129.596,136.488C129.489,135.657 129.437,134.792 129.399,134.055C129.136,128.861 130.675,123.687 132.017,123.616M118.101,141.629C119.867,141.484 121.268,139.033 121.788,137.986L121.922,137.716L121.973,138.014C122.223,139.487 123.008,141.962 125.464,141.982L125.484,141.982C126.546,141.982 127.751,141.319 128.969,140.065L129.059,139.973L129.124,140.083C129.943,141.483 131.043,142.227 132.214,142.166C133.938,142.074 134.984,140.827 135.076,139.961C135.1,139.741 135.043,139.533 134.919,139.393C134.764,139.216 134.539,139.196 134.373,139.357L134.295,139.434C133.893,139.827 133.146,140.56 132.331,140.603C131.334,140.653 130.596,140.044 130.119,138.788L130.099,138.735L130.133,138.691C132.876,135.028 134.801,129.44 134.611,125.693C134.523,123.958 134.029,121.89 132.173,121.89C132.128,121.89 132.081,121.892 132.035,121.894C131.324,121.931 130.677,122.277 130.113,122.922C128.391,124.888 127.49,129.728 127.817,135.253C127.885,136.401 128.08,137.474 128.397,138.44L128.415,138.494L128.379,138.538C127.361,139.752 126.356,140.421 125.551,140.421C123.612,140.421 123.677,137.103 123.83,134.351C123.864,133.757 123.913,133.379 123.741,133.164C123.618,133.011 123.412,132.935 123.113,132.932L123.078,132.932C122.388,132.932 122.243,133.077 121.89,134.122C121.156,136.293 119.706,139.937 118.248,139.937C117.844,139.934 117.535,139.793 117.324,139.518C116.616,138.596 117.154,136.298 117.585,134.45C117.663,134.118 117.737,133.799 117.801,133.504C117.895,133.066 117.866,132.746 117.715,132.553C117.563,132.36 117.259,132.282 116.858,132.315C116.233,132.366 115.834,132.632 115.641,133.845L115.603,134.097L115.457,133.918C115.185,133.507 114.653,133.017 113.666,133.017C113.579,133.017 113.49,133.02 113.397,133.028C112.344,133.116 111.144,133.865 110.266,134.983C109.241,136.289 108.751,137.941 108.888,139.636C108.895,139.725 108.908,139.811 108.92,139.897L108.927,139.944L108.896,139.98C108.282,140.662 107.657,141.008 107.038,141.008C106.083,141 105.535,140.276 105.535,139.068C105.535,137.036 106.884,130.909 106.884,128.691C106.884,126.331 105.854,125.046 104.064,125.032L104.037,125.032C101.425,125.032 99.3877,128.058 97.4397,134.284C97.2607,134.854 97.0667,135.513 96.9007,136.083L96.6267,137.019L96.7077,136.046C96.8887,133.876 97.0127,131.767 97.0777,129.773C97.1747,126.764 96.7757,124.828 95.8587,123.853C95.3647,123.328 94.7097,123.069 93.8577,123.062L93.8357,123.062C90.6377,123.062 89.1067,128.566 87.9917,132.45C87.6547,133.622 86.9907,136.267 86.5487,138.074L86.8107,137.639C87.0077,135.362 87.5767,129.66 87.5397,126.567C87.4997,123.249 86.4167,121.761 84.0287,121.742L83.9997,121.742C82.7247,121.742 81.8397,122.389 81.3217,122.932C80.4907,123.803 79.9727,125.076 80.0007,126.176C80.0187,126.844 80.4207,127.439 80.7247,127.439C80.9237,127.439 81.0337,127.169 81.0817,127.008C81.8197,124.515 82.7757,123.303 84.0027,123.303C84.5117,123.307 84.8907,123.46 85.1747,123.771C86.1327,124.821 85.9587,127.655 85.6427,132.801C85.5407,134.459 85.4247,136.339 85.3277,138.476C85.3107,138.843 85.2887,139.197 85.2667,139.534C85.1737,141.018 85.0997,142.191 85.6517,142.278C86.3687,142.393 86.8357,142.095 87.0747,141.37C87.4297,140.294 88.2247,137.354 89.7627,131.981C91.2387,126.825 92.3537,124.949 93.7807,124.949C95.4287,124.949 95.5517,127.838 95.2497,133.934C95.1857,135.226 95.0987,136.69 95.0327,138.283C95.0237,138.507 95.0137,138.723 95.0027,138.933C94.9397,140.252 94.8897,141.292 95.2587,141.691C95.3737,141.815 95.5307,141.877 95.7377,141.878C96.4517,141.878 96.6667,141.239 97.0227,140.179C97.0857,139.992 97.1527,139.792 97.2267,139.583C99.6757,132.689 101.486,126.708 103.916,126.708C104.645,126.708 105.211,127.312 105.211,128.491C105.211,131.211 103.909,136.467 103.909,139.132C103.909,140.086 104.178,140.944 104.686,141.546C105.209,142.164 105.939,142.494 106.798,142.501L106.817,142.501C107.63,142.501 108.478,142.098 109.336,141.303L109.416,141.228L109.481,141.317C110.046,142.093 110.958,142.509 111.942,142.432C113.452,142.312 114.719,140.939 115.191,139.645L115.283,139.392L115.375,139.645C115.725,140.605 116.482,141.763 118.101,141.629" style="fill:rgb(102,103,103);fill-rule:nonzero;"/>
            <path d="M123.736,127.797C123.062,127.797 122.517,128.339 122.512,129.006C122.506,129.678 123.048,130.229 123.718,130.234L123.727,130.334L123.727,130.234C124.392,130.234 124.937,129.692 124.942,129.025C124.947,128.353 124.406,127.802 123.736,127.797" style="fill:rgb(102,103,103);fill-rule:nonzero;"/>
            <path d="M166.145,127.797C165.47,127.797 164.926,128.339 164.921,129.006C164.915,129.678 165.456,130.229 166.127,130.234L166.136,130.334L166.136,130.234C166.801,130.234 167.346,129.692 167.351,129.025C167.356,128.353 166.815,127.802 166.145,127.797" style="fill:rgb(102,103,103);fill-rule:nonzero;"/>
            <path d="M199.171,142.219C198.779,142.219 198.463,141.897 198.463,141.497C198.463,141.096 198.779,140.773 199.171,140.773C199.563,140.773 199.879,141.096 199.879,141.497C199.879,141.897 199.563,142.219 199.171,142.219M199.171,140.65C198.715,140.65 198.343,141.03 198.343,141.497C198.343,141.962 198.715,142.341 199.171,142.341C199.628,142.341 200,141.962 200,141.497C200,141.03 199.628,140.65 199.171,140.65" style="fill:rgb(102,103,103);fill-rule:nonzero;"/>
            <path d="M199.145,141.444L198.991,141.444L198.991,141.115L199.205,141.115C199.307,141.115 199.419,141.151 199.419,141.276C199.419,141.438 199.276,141.444 199.145,141.444M199.539,141.276C199.539,141.101 199.454,141.006 199.238,141.006L198.871,141.006L198.871,141.98L198.991,141.98L198.991,141.554L199.163,141.554L199.448,141.98L199.583,141.98L199.298,141.554C199.428,141.531 199.539,141.456 199.539,141.276" style="fill:rgb(102,103,103);fill-rule:nonzero;"/>
        </g>
    </g>
</svg>
