<?xml version="1.0" encoding="utf-8"?>
<!-- Generator: Adobe Illustrator 17.1.0, SVG Export Plug-In . SVG Version: 6.00 Build 0)  -->
<!DOCTYPE svg PUBLIC "-//W3C//DTD SVG 1.1//EN" "http://www.w3.org/Graphics/SVG/1.1/DTD/svg11.dtd">
<svg version="1.1" xmlns="http://www.w3.org/2000/svg" xmlns:xlink="http://www.w3.org/1999/xlink" x="0px" y="0px"
	 viewBox="0 0 640 640" style="enable-background:new 0 0 640 640;" xml:space="preserve">
<g id="drag">
	<g>
		<path style="fill:#666766;" d="M80.9,122.2h13.8c0.6,0,1.1-0.5,1.1-1.1c0-0.6-0.5-1.1-1.1-1.1H80.9c-0.6,0-1.1,0.5-1.1,1.1
			C79.8,121.7,80.3,122.2,80.9,122.2z"/>
		<path style="fill:#666766;" d="M94.7,124.4H80.9c-0.6,0-1.1,0.5-1.1,1.1c0,0.6,0.5,1.1,1.1,1.1h13.8c0.6,0,1.1-0.5,1.1-1.1
			C95.8,124.9,95.3,124.4,94.7,124.4z"/>
		<path style="fill:#666766;" d="M94.7,128.8H80.9c-0.6,0-1.1,0.5-1.1,1.1c0,0.6,0.5,1.1,1.1,1.1h13.8c0.6,0,1.1-0.5,1.1-1.1
			C95.8,129.3,95.3,128.8,94.7,128.8z"/>
	</g>
</g>
<g id="wrench">
	<g>
		<g id="Spanner_Shadow_1_" style="opacity:0.102;">
			<g>
				<path style="fill-rule:evenodd;clip-rule:evenodd;fill:#010101;" d="M68,143.6l-9.2-7c0.6-1.1,0.9-2.3,0.9-3.6
					c0-4.2-3.4-7.5-7.5-7.5c-0.8,0-1.6,0.1-2.4,0.4l3.5,3.5l0,0c0.9,0.6,1.4,1.6,1.4,2.7c0,1.8-1.5,3.3-3.3,3.3
					c-1.1,0-2.1-0.6-2.7-1.4l0,0l-3.5-3.5c-0.3,0.8-0.4,1.6-0.4,2.4c0,4.2,3.4,7.5,7.5,7.5c1.3,0,2.5-0.3,3.6-0.9l7,9.2
					c0.7,1.1,1.8,1.8,3.2,1.8c2.1,0,3.8-1.7,3.8-3.8C69.8,145.5,69.1,144.3,68,143.6z"/>
			</g>
		</g>
		<g id="Spanner_1_">
			<g>
				<path style="fill-rule:evenodd;clip-rule:evenodd;fill:#FFFFFF;" d="M67.4,142.2l-9.2-7c0.6-1.1,0.9-2.3,0.9-3.6
					c0-4.2-3.4-7.5-7.5-7.5c-0.8,0-1.6,0.1-2.4,0.4l3.5,3.5l0,0c0.9,0.6,1.4,1.6,1.4,2.7c0,1.8-1.5,3.3-3.3,3.3
					c-1.1,0-2.1-0.6-2.7-1.4l0,0l-3.5-3.5c-0.3,0.8-0.4,1.6-0.4,2.4c0,4.2,3.4,7.5,7.5,7.5c1.3,0,2.5-0.3,3.6-0.9l7,9.2
					c0.7,1.1,1.8,1.8,3.2,1.8c2.1,0,3.8-1.7,3.8-3.8C69.2,144,68.4,142.9,67.4,142.2z M65.4,146.7c-0.7,0-1.3-0.6-1.3-1.3
					c0-0.7,0.6-1.3,1.3-1.3s1.3,0.6,1.3,1.3C66.7,146.1,66.1,146.7,65.4,146.7z"/>
			</g>
		</g>
	</g>
</g>
<g id="cart">
	<g>
		<path style="fill:#FFFFFF;" d="M11.2,186.2c-1,0-1.9,0.8-1.9,1.9s0.8,1.9,1.9,1.9c1,0,1.9-0.8,1.9-1.9S12.3,186.2,11.2,186.2
			L11.2,186.2z M11.2,186.2"/>
		<g>
			<path style="fill:#FFFFFF;" d="M28.1,160h-3.7c-0.9,0-1.7,0.6-1.8,1.5l-0.4,2.2H1.9c-0.7,0-1.3,0.3-1.6,0.9
				c-0.3,0.6-0.4,1.2-0.1,1.8l5.6,11.3c0.3,0.6,1,1,1.7,1h11.9l-0.3,1.9H9.4c-1,0-1.9,0.8-1.9,1.9c0,1,0.8,1.9,1.9,1.9h11.3
				c0.9,0,1.7-0.6,1.8-1.5l3.5-19.1h2.2c1,0,1.9-0.8,1.9-1.9C30,160.8,29.2,160,28.1,160L28.1,160z M28.1,160"/>
			<path style="fill:#FFFFFF;" d="M18.7,186.2c-1,0-1.9,0.8-1.9,1.9s0.8,1.9,1.9,1.9c1,0,1.9-0.8,1.9-1.9S19.8,186.2,18.7,186.2
				L18.7,186.2z M18.7,186.2"/>
		</g>
	</g>
</g>
<g id="gem">
	<path style="fill:#FFFFFF;" d="M30,209.4L30,209.4C30,209.3,30,209.3,30,209.4c0-0.1,0-0.2-0.1-0.2c0,0,0,0,0,0c0,0,0,0,0,0
		c0,0,0,0,0,0c0,0,0,0,0,0l-5.1-8.5c-0.2-0.3-0.5-0.5-0.9-0.5H6.1c-0.4,0-0.7,0.2-0.9,0.5L0.1,209c0,0,0,0,0,0c0,0,0,0,0,0
		c0,0,0,0,0,0c0,0,0,0,0,0c0,0.1,0,0.1-0.1,0.1c0,0,0,0,0,0.1l0,0c0,0.1,0,0.1,0,0.1c0,0,0,0.1,0,0.1c0,0,0,0.1,0,0.1
		c0,0,0,0.1,0,0.1c0,0,0,0,0,0c0,0,0,0,0,0c0,0,0,0,0,0c0,0,0,0,0,0c0,0,0,0,0,0c0,0,0,0,0,0l14,13.9c0.2,0.2,0.5,0.3,0.8,0.3
		c0.3,0,0.6-0.1,0.8-0.3l14-13.9c0,0,0,0,0,0c0,0,0,0,0,0c0,0,0,0,0,0c0,0,0,0,0,0c0,0,0,0,0,0c0,0,0,0,0,0c0,0,0-0.1,0-0.1
		c0,0,0-0.1,0-0.1c0,0,0-0.1,0-0.1C30,209.5,30,209.4,30,209.4L30,209.4z M16.8,201.8l3.8,6.8H9.4l3.8-6.8H16.8z M6.7,201.8h4.2
		l-3.8,6.8H2.7L6.7,201.8z M3.3,210.3h3.8l4.1,7.8L3.3,210.3z M15,221.2l-5.6-10.8h11.2L15,221.2z M18.8,218.1l4.1-7.8h3.8
		L18.8,218.1z M22.9,208.5l-3.8-6.8h4.2l4,6.8H22.9z M22.9,208.5"/>
</g>
<g id="wallet">
	<path style="fill:#FFFFFF;" d="M27.2,247.5H5.3c-1.7,0-2.4-0.8-2.7-1.3l23.6-2.5v-0.9c0-1.6-1.3-2.8-2.8-2.8l-20.6,3.8
		c-1.7,0.3-2.8,1.3-2.8,2.8v20.5c0,1.6,1.3,2.8,2.8,2.8h24.3c1.6,0,2.8-1.3,2.8-2.8v-16.8C30,248.8,28.7,247.5,27.2,247.5
		L27.2,247.5z M25,261.3c-1.4,0-2.5-1.1-2.5-2.5s1.1-2.5,2.5-2.5s2.5,1.1,2.5,2.5S26.4,261.3,25,261.3L25,261.3z M25,261.3"/>
</g>
<g id="truck">
	<g>
		<path style="fill:#FFFFFF;" d="M15.8,147.7c0-2.1-1.7-3.8-3.8-3.8c-2.1,0-3.7,1.7-3.7,3.8c0,2.1,1.7,3.8,3.7,3.8
			C14.2,151.4,15.8,149.8,15.8,147.7L15.8,147.7z M10.9,147.7c0-0.7,0.6-1.2,1.2-1.2c0.7,0,1.2,0.6,1.2,1.2c0,0.7-0.6,1.2-1.2,1.2
			C11.4,148.9,10.9,148.4,10.9,147.7L10.9,147.7z M10.9,147.7"/>
		<path style="fill:#FFFFFF;" d="M24.8,135.1v7.7c0,0,0.2-0.1,1.2-0.1c2.3,0,3.5,1.1,4,2c0.3-0.3,0.7-0.5,1.2-0.5H35v-5.6l-2.3-3.5
			H24.8z M33.4,141h-4.3v-4.3h3.2l1.1,1.7V141z M33.4,141"/>
		<path style="fill:#FFFFFF;" d="M7.1,140.4c0,0,8.8,1.6,10,5.9h4.1c0,0,0.5-2.7,2.6-3.4V134h9.4l1.6-2.1H22.6l-1.5,3.2H5.5v2.1h1.6
			L7.1,140.4z M7.1,140.4"/>
		<path style="fill:#FFFFFF;" d="M31.2,145.2c-0.2,0-0.5,0.2-0.5,0.4c0,0,0,0.1,0,0.1v1.1c0,0.3,0.2,0.5,0.5,0.5H35
			c0.3,0,0.5-0.2,0.5-0.5v-1.1c0-0.3-0.2-0.5-0.5-0.5H31.2z M31.2,145.2"/>
		<path style="fill:#FFFFFF;" d="M29.8,147.7c0-0.1,0-0.1,0-0.2c0-0.3-0.1-0.7-0.2-1c-0.5-1.5-1.9-2.6-3.6-2.6
			c-2.1,0-3.7,1.7-3.7,3.8c0,2.1,1.7,3.8,3.7,3.8C28.1,151.4,29.8,149.8,29.8,147.7L29.8,147.7z M24.8,147.7c0-0.7,0.6-1.2,1.2-1.2
			c0.7,0,1.2,0.6,1.2,1.2c0,0.7-0.6,1.2-1.2,1.2C25.3,148.9,24.8,148.4,24.8,147.7L24.8,147.7z M24.8,147.7"/>
		<g id="symbol_1_">
			<g>
				<path style="fill:#FFFFFF;" d="M17.9,131.6c0.8-0.3,1.3-1,1.3-2.1c-0.1-1.5-1.4-2-3.1-2.2l0.1-2.1l-1.3,0l-0.1,2
					c-0.3,0-0.7,0-1.1,0l0.1-2l-1.3,0l-0.1,2.1c-0.3,0-0.6,0-0.8,0l0,0l-1.8-0.1l-0.1,1.3c0,0,1,0,1,0c0.5,0,0.7,0.3,0.7,0.6
					l-0.1,2.3c0,0,0.1,0,0.1,0c0,0-0.1,0-0.1,0l-0.2,3.3c0,0.2-0.1,0.4-0.5,0.4c0,0-1,0-1,0l-0.4,1.5l1.7,0.1c0.3,0,0.6,0,0.9,0
					l-0.1,2.1l1.3,0l0.1-2.1c0.4,0,0.7,0,1.1,0l-0.1,2.1l1.3,0l0.1-2.1c2.2,0,3.8-0.5,4.1-2.5C19.8,132.7,19.1,132,17.9,131.6z
					 M13.6,128.7c0.7,0,3.1-0.1,3,1.4c-0.1,1.4-2.4,1.2-3.2,1.1L13.6,128.7z M13.2,135.2l0.2-2.8c0.9,0,3.7-0.1,3.6,1.5
					C16.9,135.5,14.1,135.2,13.2,135.2z"/>
			</g>
		</g>
	</g>
</g>
<g id="pig">
	<g>
		<path style="fill:#FFFFFF;" d="M22.3,94.8c-0.2-0.3-0.4-0.5-0.6-0.6c-0.2-0.1-0.5-0.2-0.8-0.3c0.3-0.1,0.6-0.3,0.8-0.4
			c0.2-0.2,0.3-0.4,0.5-0.6c0.1-0.2,0.2-0.5,0.2-0.7c0-0.3-0.1-0.7-0.3-0.9c-0.2-0.3-0.5-0.5-0.9-0.7c-0.1-0.1-0.3-0.1-0.5-0.1v-1.3
			h-1.3v1.2h-0.8v-1.2h-1.3v1.2h-1.9v1h0.3c0.2,0,0.3,0,0.4,0.1c0.1,0,0.1,0.1,0.2,0.1c0,0.1,0,0.2,0,0.4v4.2c0,0.2,0,0.4,0,0.4
			c0,0.1-0.1,0.1-0.2,0.2c-0.1,0-0.2,0-0.4,0h-0.3v1h1.9v1.2h1.3v-1.2h0.8v1.2h1.3v-1.3c0.2,0,0.4-0.1,0.6-0.2
			c0.4-0.2,0.8-0.4,1-0.8c0.2-0.3,0.4-0.7,0.4-1.1C22.5,95.4,22.4,95.1,22.3,94.8L22.3,94.8z M19.8,91.7c0.2,0.1,0.3,0.2,0.4,0.3
			c0.1,0.1,0.1,0.3,0.1,0.5c0,0.2-0.1,0.4-0.2,0.5c-0.1,0.1-0.3,0.3-0.5,0.3c-0.2,0.1-0.5,0.1-1,0.1H18v-1.8h0.8
			C19.3,91.6,19.6,91.6,19.8,91.7L19.8,91.7z M19,96.7h-0.5c-0.2,0-0.3,0-0.3,0c0,0-0.1-0.1-0.1-0.1c0,0,0-0.2,0-0.4v-1.6h1
			c0.4,0,0.7,0,1,0.1c0.2,0.1,0.4,0.2,0.5,0.3c0.1,0.2,0.2,0.3,0.2,0.6c0,0.3-0.1,0.5-0.2,0.7c-0.2,0.2-0.3,0.3-0.5,0.4
			C19.6,96.6,19.3,96.7,19,96.7L19,96.7z M35,94.1c0-0.3-0.1-0.7-0.1-1.1c-0.1-0.7-0.2-1.5-0.2-2.8l0-0.9l-0.9,0.1c0,0-0.1,0-0.2,0
			c-0.5,0-1.8-0.2-2.8-1.6c-0.2-0.3-0.4-0.6-0.6-1c-0.4-0.7-0.8-1.3-1.4-2c0.4-0.9,1-1.7,1.1-1.9c0.7-0.8,0.6-1.4,0.5-1.8
			c-0.3-0.9-1.2-1.1-1.4-1.2l-0.1,0C28.4,80,28,80,27.6,80c-2.1,0-3.9,0.6-5,1.1c-1.5-0.5-3-0.7-4.5-0.7c-4,0-7.5,1.6-10.1,4
			c-0.3-0.2-0.6-0.3-1-0.5c-0.2-0.1-0.4-0.1-0.7-0.2L6,83.7l-0.3,0c-0.5,0-0.9,0.1-1.3,0.2c-0.1-0.1-0.1-0.2-0.2-0.2
			c-0.1-0.1-0.2-0.2-0.3-0.3c-0.1-0.1-0.1-0.1-0.2-0.1c-0.1,0-0.1-0.1-0.2-0.1C3.2,83,2.9,83,2.7,83.1c-0.5,0.1-0.9,0.2-1.3,0.4
			c-0.3,0.2-0.6,0.4-0.8,0.5c-0.2,0.2-0.4,0.3-0.5,0.4C0,84.4,0,84.5,0,84.5s0.1,0,0.2-0.1c0.1-0.1,0.3-0.2,0.5-0.3
			c0.2-0.1,0.5-0.3,0.8-0.4c0.3-0.1,0.7-0.2,1.2-0.2c0.2,0,0.4,0,0.6,0.1l0.2,0.1c0,0,0.1,0.1,0.1,0.1c0,0,0.1,0.1,0.1,0.1
			c0,0,0.1,0.1,0.1,0.1c0,0,0,0.1,0.1,0.1c-0.2,0.1-0.4,0.2-0.6,0.3c-0.3,0.2-0.6,0.4-0.9,0.8l0,0l0,0c-0.1,0.2-0.2,0.4-0.2,0.6
			c0,0.2-0.1,0.5,0,0.7c0,0.1,0.1,0.3,0.2,0.4c0.1,0.1,0.3,0.2,0.4,0.3c0.1,0.1,0.3,0.1,0.4,0.1h0.2c0.1,0,0.1,0,0.1,0l0.1,0l0.1,0
			l0,0l0.2-0.1c0.1,0,0.2-0.1,0.3-0.2c0.2-0.1,0.4-0.3,0.5-0.5c0.2-0.4,0.3-0.8,0.3-1.1c0-0.2,0-0.4-0.1-0.7
			c0.3-0.1,0.6-0.1,0.9-0.1c0.2,0,0.4,0,0.5,0.1c0.2,0,0.4,0.1,0.5,0.1C7,84.9,7.2,85,7.4,85.1c-1.9,2.2-3.1,5-3.1,8
			c0,4.2,2.7,8.3,5.3,10.3c0.1,0.2,0.1,0.7,0.1,1.2c0,1.2,1,2.2,2.1,2.2h3.7c0.8,0,1.5-0.4,1.8-1c0.5,0,0.9,0,1.4,0
			c0.4,0.6,1.1,1,1.8,1h3.7c1.2,0,2.2-1,2.2-2.2l0-0.2c-0.1-0.4-0.2-1-0.1-1.2l0.2-0.2c1.5-1.5,3.1-3,4.2-4.9c0.5-0.7,1.3-1.5,2-1.5
			c0.3,0,1.1-0.1,1.7-0.7C34.9,95.6,35,94.9,35,94.1L35,94.1z M4,86.1c0,0.1-0.1,0.1-0.1,0.1c0,0-0.1,0.1-0.1,0.1l-0.1,0
			c0,0-0.1,0-0.1,0l-0.1,0l0,0l0,0l-0.1,0c0,0,0,0-0.1,0c0,0-0.1,0-0.1,0c0,0,0,0-0.1-0.1c0-0.1,0-0.4,0.2-0.7
			c0.1-0.2,0.5-0.4,0.9-0.6c0,0.1,0,0.3,0,0.4C4.2,85.7,4.1,86,4,86.1L4,86.1z M10.8,87L10.8,87c-0.1,0-0.2,0-0.3-0.1
			c-0.1-0.1-0.1-0.2-0.1-0.2c0-0.1,0-0.2,0.1-0.2c0,0,3.2-3,7.7-3c1.5,0,2.9,0.3,4.3,0.9c0.1,0,0.1,0.1,0.2,0.2c0,0.1,0,0.2,0,0.2
			C22.7,85,22.5,85,22.4,85c-0.1,0-0.1,0-0.1,0c-1.3-0.6-2.7-0.9-4.1-0.9c-4.2,0-7.2,2.8-7.2,2.8C10.9,87,10.9,87,10.8,87L10.8,87z
			 M18.8,100.8c-3.9,0-7-3.1-7-6.9c0-3.8,3.1-6.9,7-6.9c3.9,0,7,3.1,7,6.9C25.8,97.7,22.6,100.8,18.8,100.8L18.8,100.8z M18.8,100.8
			"/>
	</g>
</g>
<g id="graph">
	<g>
		<path style="opacity:0.102;fill:#010101;" d="M110.8,164.3c0,1.4-1.1,2.5-2.5,2.5c-0.5,0-0.9-0.1-1.3-0.4l-6.1,6.1
			c0,0.2,0.1,0.4,0.1,0.6c0,1.4-1.1,2.5-2.6,2.5c-1.4,0-2.5-1.1-2.5-2.5c0-0.2,0-0.4,0.1-0.6l-2.8-2.5c-0.5,0.4-1.1,0.7-1.8,0.7
			c-0.5,0-0.9-0.1-1.3-0.4l-4.3,4.4c0.1,0.3,0.2,0.6,0.2,0.9c0,1.4-1.1,2.5-2.6,2.5c-1.4,0-2.5-1.1-2.5-2.5c0-1.4,1.1-2.5,2.5-2.5
			c0.5,0,1,0.2,1.4,0.4l4.2-4.3c-0.2-0.3-0.2-0.7-0.2-1c0-1.4,1.1-2.6,2.5-2.6c1.4,0,2.5,1.1,2.5,2.6c0,0.1,0,0.3,0,0.4l3,2.6
			c0.4-0.4,1-0.6,1.6-0.6c0.6,0,1.2,0.2,1.6,0.6l5.9-5.9c-0.1-0.3-0.2-0.7-0.2-1c0-1.4,1.1-2.5,2.5-2.5
			C109.6,161.8,110.8,162.9,110.8,164.3L110.8,164.3z"/>
		<path style="fill:#FFFFFF;" d="M110,162.6c0,1.4-1.1,2.5-2.5,2.5c-0.5,0-0.9-0.1-1.3-0.4l-6.1,6.1c0,0.2,0.1,0.4,0.1,0.6
			c0,1.4-1.1,2.5-2.6,2.5c-1.4,0-2.5-1.1-2.5-2.5c0-0.2,0-0.4,0.1-0.6l-2.8-2.5c-0.5,0.4-1.1,0.7-1.8,0.7c-0.5,0-0.9-0.1-1.3-0.4
			l-4.3,4.4c0.1,0.3,0.2,0.6,0.2,0.9c0,1.4-1.1,2.5-2.6,2.5c-1.4,0-2.5-1.1-2.5-2.5c0-1.4,1.1-2.5,2.5-2.5c0.5,0,1,0.2,1.4,0.4
			l4.2-4.3c-0.2-0.3-0.2-0.7-0.2-1c0-1.4,1.1-2.6,2.5-2.6c1.4,0,2.5,1.1,2.5,2.6c0,0.1,0,0.3,0,0.4l3,2.6c0.4-0.4,1-0.6,1.6-0.6
			c0.6,0,1.2,0.2,1.6,0.6l5.9-5.9c-0.1-0.3-0.2-0.7-0.2-1c0-1.4,1.1-2.5,2.5-2.5C108.9,160,110,161.1,110,162.6L110,162.6z"/>
	</g>
</g>
<g id="gears">
	<g>
		<g id="Money_Shadow_1_" style="opacity:0.102;">
			<g>
				<path style="fill-rule:evenodd;clip-rule:evenodd;fill:#010101;" d="M69.9,170.1l-1.3-0.8c0.1-0.6,0.1-1.2,0-1.8l1.3-0.8l0,0
					c0.1-0.1,0.2-0.2,0.1-0.4l-0.4-1.1c-0.1-0.1-0.2-0.2-0.3-0.2l0,0l-1.5,0.3c-0.3-0.5-0.8-0.9-1.3-1.3l0.3-1.5l0,0
					c0-0.1,0-0.3-0.2-0.3l-1.1-0.4c-0.1-0.1-0.3,0-0.4,0.1l0,0l-0.8,1.3c-0.6-0.1-1.2-0.1-1.8,0l-0.8-1.3l0,0
					c-0.1-0.1-0.2-0.2-0.4-0.1l-1.1,0.4c-0.1,0.1-0.2,0.2-0.2,0.3l0,0l0.3,1.5c-0.5,0.3-0.9,0.8-1.3,1.3l-1.5-0.3l0,0
					c-0.1,0-0.3,0-0.3,0.2l-0.4,1.1c-0.1,0.1,0,0.3,0.1,0.4l0,0l1.3,0.8c-0.1,0.6-0.1,1.2,0,1.8l-1.3,0.8l0,0
					c-0.1,0.1-0.2,0.2-0.1,0.4l0.4,1.1c0.1,0.1,0.2,0.2,0.3,0.2l0,0l1.5-0.3c0.3,0.5,0.8,0.9,1.3,1.3l-0.3,1.5l0,0
					c0,0.1,0,0.3,0.2,0.3l1.1,0.4c0.1,0.1,0.3,0,0.4-0.1l0,0l0.8-1.3c0.6,0.1,1.2,0.1,1.8,0l0.8,1.3l0,0c0.1,0.1,0.2,0.2,0.4,0.1
					l1.1-0.4c0.1-0.1,0.2-0.2,0.2-0.3l0,0l-0.3-1.5c0.5-0.3,0.9-0.8,1.3-1.3l1.5,0.3l0,0c0.1,0,0.3,0,0.3-0.2l0.4-1.1
					C70,170.4,70,170.2,69.9,170.1L69.9,170.1z M64.6,168c-0.3,0.7-1.1,1-1.7,0.7c-0.7-0.3-1-1.1-0.7-1.7c0.3-0.7,1.1-1,1.7-0.7
					C64.6,166.6,64.9,167.3,64.6,168z M60.8,179.9L60.8,179.9l-2.5-0.5c-0.2-0.8-0.5-1.6-1-2.4l1.4-2.1l0,0c0.1-0.2,0.1-0.4,0-0.6
					l-1.2-1.2c-0.2-0.2-0.4-0.2-0.6,0l0,0l-2.1,1.4c-0.7-0.4-1.5-0.8-2.3-1l-0.5-2.5l0,0c0-0.2-0.2-0.4-0.4-0.4h-1.8
					c-0.2,0-0.4,0.2-0.4,0.4l0,0l-0.5,2.5c-0.8,0.2-1.6,0.5-2.3,1l-2.1-1.4l0,0c-0.2-0.1-0.4-0.1-0.6,0l-1.2,1.2
					c-0.2,0.2-0.2,0.4,0,0.6l0,0l1.4,2.1c-0.4,0.7-0.8,1.5-1,2.4l-2.5,0.5l0,0c-0.2,0-0.4,0.2-0.4,0.4v1.8c0,0.2,0.2,0.4,0.4,0.4
					l0,0l2.5,0.5c0.2,0.8,0.5,1.6,1,2.3l-1.4,2.1l0,0c-0.1,0.2-0.1,0.4,0,0.6l1.2,1.2c0.2,0.2,0.4,0.2,0.6,0l0,0l2.1-1.4
					c0.7,0.4,1.5,0.8,2.4,1l0.5,2.5l0,0c0,0.2,0.2,0.4,0.4,0.4h1.8c0.2,0,0.4-0.2,0.4-0.4l0,0l0.5-2.5c0.8-0.2,1.6-0.5,2.4-1
					l2.1,1.4l0,0c0.2,0.1,0.4,0.1,0.6,0l1.2-1.2c0.2-0.2,0.2-0.4,0-0.6l0,0l-1.4-2.1c0.4-0.7,0.8-1.5,1-2.3l2.5-0.5l0,0
					c0.2,0,0.4-0.2,0.4-0.4v-1.8C61.2,180.1,61,179.9,60.8,179.9z M50.6,182.1c-1,0-1.8-0.8-1.8-1.8s0.8-1.8,1.8-1.8
					c1,0,1.8,0.8,1.8,1.8S51.6,182.1,50.6,182.1z"/>
			</g>
		</g>
		<g id="Gears_1_">
			<g>
				<path style="fill-rule:evenodd;clip-rule:evenodd;fill:#FFFFFF;" d="M60.8,178.1L60.8,178.1l-2.5-0.5c-0.2-0.8-0.5-1.6-1-2.4
					l1.4-2.1l0,0c0.1-0.2,0.1-0.4,0-0.6l-1.2-1.2c-0.2-0.2-0.4-0.2-0.6,0l0,0l-2.1,1.4c-0.7-0.4-1.5-0.8-2.3-1l-0.5-2.5l0,0
					c0-0.2-0.2-0.4-0.4-0.4h-1.8c-0.2,0-0.4,0.2-0.4,0.4l0,0l-0.5,2.5c-0.8,0.2-1.6,0.5-2.3,1l-2.1-1.4l0,0c-0.2-0.1-0.4-0.1-0.6,0
					l-1.2,1.2c-0.2,0.2-0.2,0.4,0,0.6l0,0l1.4,2.1c-0.4,0.7-0.8,1.5-1,2.4l-2.5,0.5l0,0c-0.2,0-0.4,0.2-0.4,0.4v1.8
					c0,0.2,0.2,0.4,0.4,0.4l0,0l2.5,0.5c0.2,0.8,0.5,1.6,1,2.3l-1.4,2.1l0,0c-0.1,0.2-0.1,0.4,0,0.6l1.2,1.2c0.2,0.2,0.4,0.2,0.6,0
					l0,0l2.1-1.4c0.7,0.4,1.5,0.8,2.4,1l0.5,2.5l0,0c0,0.2,0.2,0.4,0.4,0.4h1.8c0.2,0,0.4-0.2,0.4-0.4l0,0l0.5-2.5
					c0.8-0.2,1.6-0.5,2.4-1l2.1,1.4l0,0c0.2,0.1,0.4,0.1,0.6,0l1.2-1.2c0.2-0.2,0.2-0.4,0-0.6l0,0l-1.4-2.1c0.4-0.7,0.8-1.5,1-2.3
					l2.5-0.5l0,0c0.2,0,0.4-0.2,0.4-0.4v-1.8C61.2,178.3,61,178.1,60.8,178.1z M50.6,182.9c-1.9,0-3.5-1.6-3.5-3.5
					c0-1.9,1.6-3.5,3.5-3.5c1.9,0,3.5,1.6,3.5,3.5C54.1,181.4,52.5,182.9,50.6,182.9z M69.9,168.4l-1.3-0.8c0.1-0.6,0.1-1.2,0-1.8
					l1.3-0.8l0,0c0.1-0.1,0.2-0.2,0.1-0.4l-0.4-1.1c-0.1-0.1-0.2-0.2-0.3-0.2l0,0l-1.5,0.3c-0.3-0.5-0.8-0.9-1.3-1.3l0.3-1.5l0,0
					c0-0.1,0-0.3-0.2-0.3l-1.1-0.4c-0.1-0.1-0.3,0-0.4,0.1l0,0l-0.8,1.3c-0.6-0.1-1.2-0.1-1.8,0l-0.8-1.3l0,0
					c-0.1-0.1-0.2-0.2-0.4-0.1l-1.1,0.4c-0.1,0.1-0.2,0.2-0.2,0.3l0,0l0.3,1.5c-0.5,0.3-0.9,0.8-1.3,1.3l-1.5-0.3l0,0
					c-0.1,0-0.3,0-0.3,0.2l-0.4,1.1c-0.1,0.1,0,0.3,0.1,0.4l0,0l1.3,0.8c-0.1,0.6-0.1,1.2,0,1.8l-1.3,0.8l0,0
					c-0.1,0.1-0.2,0.2-0.1,0.4l0.4,1.1c0.1,0.1,0.2,0.2,0.3,0.2l0,0l1.5-0.3c0.3,0.5,0.8,0.9,1.3,1.3l-0.3,1.5l0,0
					c0,0.1,0,0.3,0.2,0.3l1.1,0.4c0.1,0.1,0.3,0,0.4-0.1l0,0l0.8-1.3c0.6,0.1,1.2,0.1,1.8,0l0.8,1.3l0,0c0.1,0.1,0.2,0.2,0.4,0.1
					l1.1-0.4c0.1-0.1,0.2-0.2,0.2-0.3l0,0l-0.3-1.5c0.5-0.3,0.9-0.8,1.3-1.3l1.5,0.3l0,0c0.1,0,0.3,0,0.3-0.2l0.4-1.1
					C70,168.6,70,168.4,69.9,168.4L69.9,168.4z M65.4,167.5c-0.5,1.1-1.8,1.7-2.9,1.2c-1.1-0.5-1.7-1.8-1.2-2.9
					c0.5-1.1,1.8-1.7,2.9-1.2C65.4,165,65.9,166.3,65.4,167.5z"/>
			</g>
		</g>
	</g>
</g>
<g id="QR">
	<g>
		<path style="fill:#666666;" d="M87.5,80H80v7.5h7.5V80z M85.8,85.8h-4.2v-4.2h4.2V85.8z M85,85h-2.5v-2.5H85V85z M90.8,81.7h-1.7
			V80h1.7V81.7z M90.8,86.7h-1.7v-3.3h1.7V86.7z M81.7,88.3V90H80v-1.7H81.7z M98.3,90h1.7v1.7h-5V90h1.7v-1.7h1.7V90z M92.5,95v1.7
			h-1.7v1.7h-1.7V95h1.7v-1.7h3.3V95H92.5z M98.3,93.3h1.7v3.3h-1.7v1.7h-0.8v1.7h-1.7v-1.7h0.8v-1.7h-0.8v1.7h-1.7v1.7h-1.7v-3.3
			h1.7V95h1.7v-1.7H98.3z M98.3,100v-1.7h1.7v1.7H98.3z M95,88.3V90h-1.7v1.7h-6.7V90H85v1.7h-3.3V90h1.7v-1.7H90V90h0.8v-1.7H95z
			 M80,100h7.5v-7.5H80V100z M81.7,94.2h4.2v4.2h-4.2V94.2z M82.5,95H85v2.5h-2.5V95z M92.5,80v7.5h7.5V80H92.5z M98.3,85.8h-4.2
			v-4.2h4.2V85.8z M97.5,85H95v-2.5h2.5V85z M97.5,85"/>
	</g>
</g>
<g id="bitcoin">
	<g id="symbol_2_">
		<g>
			<path style="fill:#FFFFFF;" d="M69.9,95.1c0.6-3.9-2.6-6.1-6.9-7.5l1.4-5.3L61,81.5l-1.4,5.2c-0.9-0.2-1.8-0.4-2.8-0.6l1.4-5.2
				L54.8,80l-1.4,5.3c-0.7-0.2-1.5-0.3-2.2-0.5l0,0l-4.7-1.1l-0.9,3.5c0,0,2.6,0.6,2.5,0.6c1.4,0.3,1.6,1.2,1.6,1.9L48,95.8
				c0.1,0,0.2,0.1,0.4,0.1c-0.1,0-0.2-0.1-0.4-0.1l-2.2,8.5c-0.2,0.4-0.6,1-1.6,0.8c0,0-2.5-0.6-2.5-0.6l-1.7,3.7l4.5,1.1
				c0.8,0.2,1.6,0.4,2.5,0.6l-1.4,5.4l3.4,0.8l1.4-5.3c0.9,0.2,1.9,0.5,2.7,0.7l-1.4,5.3l3.4,0.8l1.4-5.4c5.9,1,10.3,0.6,12.1-4.4
				c1.5-4-0.1-6.4-3.2-7.9C67.8,99.4,69.5,98,69.9,95.1z M62.1,105.5c-1.1,4-8.3,1.9-10.6,1.3l1.9-7.2
				C55.7,100.2,63.2,101.3,62.1,105.5z M63.1,95c-1,3.7-7,1.8-8.9,1.3l1.7-6.5C57.9,90.3,64.1,91.2,63.1,95z"/>
		</g>
	</g>
</g>
<g id="guides">
</g>
</svg>
